<svg width="22" height="21" viewBox="0 0 22 21" fill="none" xmlns="http://www.w3.org/2000/svg">
<path d="M10.0002 6.00415H12.0002V12.0042H10.0002V6.00415Z" fill="#F3532E"/>
<path d="M12.0002 14.0042H10.0002V16.0042H12.0002V14.0042Z" fill="#F3532E"/>
<path fill-rule="evenodd" clip-rule="evenodd" d="M10.9973 0L11.0876 0.00791353C11.5969 0.0525788 12.0841 0.234337 12.4987 0.533145C12.8977 0.820738 13.2152 1.20639 13.422 1.65174L21.5097 15.836C22.0361 16.7557 22.203 17.818 21.6918 18.7141C21.1785 19.6142 20.1781 20.0041 19.1217 20.0041H2.87872C1.82232 20.0041 0.821921 19.6142 0.308536 18.7141C-0.202677 17.8179 -0.0361791 16.7563 0.49037 15.8365L8.58834 1.65169C8.7939 1.20869 9.10894 0.824665 9.50492 0.537402C9.91659 0.238761 10.4006 0.0557747 10.9071 0.00842929L10.9973 0ZM11.0031 2.01321C10.8874 2.03703 10.777 2.08545 10.6793 2.15629C10.5565 2.24539 10.458 2.36703 10.3953 2.50962L10.3742 2.5574L2.22623 16.8299C1.91286 17.3771 2.0045 17.6508 2.0458 17.7232C2.08501 17.792 2.26482 18.0041 2.87872 18.0041H19.1217C19.7356 18.0041 19.9154 17.792 19.9546 17.7232C19.9959 17.6508 20.0875 17.3771 19.7741 16.8299L11.6362 2.5574L11.6153 2.51012C11.5522 2.36687 11.453 2.24482 11.3293 2.15568C11.2309 2.08473 11.1196 2.03651 11.0031 2.01321Z" fill="#F3532E"/>
</svg>
