<svg width="20" height="20" viewBox="0 0 20 20" fill="none" xmlns="http://www.w3.org/2000/svg">
<path fill-rule="evenodd" clip-rule="evenodd" d="M7 0C5.34315 0 4 1.34315 4 3V4H3C1.34315 4 0 5.34315 0 7V13C0 14.6569 1.34315 16 3 16H5.64922L10.3753 19.7809C10.6755 20.021 11.0867 20.0678 11.4332 19.9013C11.7797 19.7348 12 19.3844 12 19V16H13C14.6569 16 16 14.6569 16 13V12H17C18.6569 12 20 10.6569 20 9V3C20 1.34315 18.6569 0 17 0H7ZM13 4H6V3C6 2.44772 6.44772 2 7 2H17C17.5523 2 18 2.44772 18 3V9C18 9.55228 17.5523 10 17 10H16V7C16 5.34315 14.6569 4 13 4ZM3 6C2.44772 6 2 6.44772 2 7V13C2 13.5523 2.44772 14 3 14H6.35078L10 16.9194V14H13C13.5523 14 14 13.5523 14 13V7C14 6.44772 13.5523 6 13 6H3ZM6 9H4V11H6V9ZM7 9H9V11H7V9ZM12 9H10V11H12V9Z" fill="#F3532E"/>
</svg>
