<svg width="20" height="20" viewBox="0 0 20 20" fill="none" xmlns="http://www.w3.org/2000/svg">
<path fill-rule="evenodd" clip-rule="evenodd" d="M5.31006 0.406411C8.02601 -0.506076 11.1488 0.117889 13.3154 2.28406C15.3309 4.29911 16.0117 7.14152 15.3621 9.71436L19.7035 14.0124C20.2352 14.5388 19.9078 15.5338 19.7177 16.1143C19.481 16.8375 19.0306 17.7866 18.1731 18.5789C17.3398 19.3487 16.4902 19.7091 15.8292 19.8719C15.501 19.9527 15.2216 19.9844 15.0154 19.9952C14.9123 20.0005 14.8269 20.0007 14.7623 19.999L14.6325 19.9919C14.3989 19.97 14.1805 19.8667 14.0154 19.7L9.71633 15.3593C7.14311 16.0088 4.30016 15.3282 2.28465 13.3131C0.118004 11.1469 -0.506193 8.02458 0.406562 5.30895C0.516833 4.98088 0.788914 4.73315 1.12587 4.65403C1.46282 4.57491 1.81672 4.67566 2.06149 4.92037L5.93304 8.79114L8.07804 8.07628L8.79291 5.93212L4.92151 2.06152C4.6767 1.81676 4.57589 1.4628 4.65501 1.12579C4.73413 0.788782 4.98191 0.51666 5.31006 0.406411ZM15.1225 17.9757C15.1902 17.9653 15.2669 17.9506 15.3508 17.9299C15.7274 17.8372 16.262 17.6215 16.8158 17.1099C17.3454 16.6206 17.6477 16.0091 17.817 15.492C17.8676 15.3374 17.905 15.1953 17.9323 15.0733L13.5303 10.7151C13.2578 10.4454 13.1635 10.0435 13.2877 9.68075C13.9824 7.65034 13.5185 5.31519 11.9014 3.69842C10.7413 2.53861 9.21146 1.97204 7.68954 2.00085L10.6441 4.95481C10.912 5.22266 11.0056 5.6189 10.8857 5.97828L9.81722 9.18319C9.71767 9.48179 9.48334 9.71609 9.18473 9.81561L5.97916 10.8839C5.61987 11.0036 5.22378 10.9101 4.95596 10.6424L2.00089 7.68793C1.97202 9.20945 2.53865 10.739 3.69872 11.8988C5.31586 13.5156 7.65169 13.9795 9.68275 13.2849C10.0455 13.1608 10.4471 13.255 10.7169 13.5274L15.1225 17.9757Z" fill="#F3532E"/>
</svg>
