<svg width="16" height="20" viewBox="0 0 16 20" fill="none" xmlns="http://www.w3.org/2000/svg">
<path fill-rule="evenodd" clip-rule="evenodd" d="M13.1102 11.1738C13.7013 9.95178 14 8.86882 14 8C14 4.68629 11.3137 2 8 2C4.68629 2 2 4.68629 2 8C2 8.86882 2.29869 9.95178 2.88975 11.1738C3.47139 12.3764 4.2772 13.5927 5.14241 14.6908C6.00671 15.7878 6.89396 16.721 7.60579 17.3616C7.74992 17.4913 7.8817 17.6044 8 17.7014C8.11831 17.6044 8.25008 17.4913 8.39421 17.3616C9.10604 16.721 9.99329 15.7878 10.8576 14.6908C11.7228 13.5927 12.5286 12.3764 13.1102 11.1738ZM8 20C9.14286 20 16 13.1429 16 8C16 3.58172 12.4183 0 8 0C3.58172 0 0 3.58172 0 8C0 13.1429 6.85714 20 8 20Z" fill="#F3532E"/>
<path d="M11 8C11 9.65685 9.65685 11 8 11C6.34315 11 5 9.65685 5 8C5 6.34315 6.34315 5 8 5C9.65685 5 11 6.34315 11 8Z" fill="#F3532E"/>
</svg>
