<svg width="20" height="20" viewBox="0 0 20 20" fill="none" xmlns="http://www.w3.org/2000/svg">
<path fill-rule="evenodd" clip-rule="evenodd" d="M18.8929 8.54979L18.8941 8.55208L18.8959 8.55566L18.8987 8.56142L18.9086 8.58139C18.9169 8.59834 18.9287 8.62251 18.9435 8.65314C18.9731 8.71436 19.0146 8.80166 19.0642 8.90907C19.163 9.12314 19.2954 9.42082 19.4285 9.75361C19.5608 10.0843 19.6989 10.4623 19.8053 10.8347C19.9073 11.1918 20 11.6103 20 12V18H15.8284C15.6807 18.4179 15.4407 18.8019 15.1213 19.1213C14.5587 19.6839 13.7957 20 13 20C12.2043 20 11.4413 19.6839 10.8787 19.1213C10.5593 18.8019 10.3193 18.4179 10.1716 18H5.82843C5.68067 18.4179 5.44073 18.8019 5.12132 19.1213C4.55871 19.6839 3.79565 20 3 20C2.20435 20 1.44129 19.6839 0.87868 19.1213C0.31607 18.5587 0 17.7956 0 17C0 16.2044 0.31607 15.4413 0.87868 14.8787C1.44129 14.3161 2.20435 14 3 14C3.79565 14 4.55871 14.3161 5.12132 14.8787C5.44073 15.1981 5.68067 15.5821 5.82843 16H10.1716C10.3193 15.5821 10.5593 15.1981 10.8787 14.8787C11.4413 14.3161 12.2044 14 13 14C13.7956 14 14.5587 14.3161 15.1213 14.8787C15.4407 15.1981 15.6807 15.5821 15.8284 16H18V14H15V12H18C18 11.8897 17.9677 11.6832 17.8822 11.3841C17.8011 11.1002 17.6892 10.7907 17.5715 10.4964C17.4546 10.2042 17.337 9.93936 17.2483 9.74718C17.2041 9.65147 17.1675 9.5747 17.1424 9.52264L17.1139 9.46402L17.1099 9.45593L17.1083 9.45317C17.1028 9.44347 17.0913 9.42416 17.0742 9.39845C17.0388 9.34536 16.9857 9.2749 16.9179 9.20711C16.7769 9.0661 16.6412 9 16.5 9H14V7H16.5C17.3588 7 17.9731 7.4339 18.3321 7.79289C18.5143 7.9751 18.6487 8.15465 18.7383 8.28905C18.7837 8.3571 18.8191 8.4159 18.8448 8.46089C18.8577 8.48345 18.8683 8.50273 18.8765 8.51818L18.8872 8.53849L18.8912 8.54641L18.8929 8.54979ZM4 17C4 16.7348 3.89464 16.4804 3.70711 16.2929C3.51957 16.1054 3.26522 16 3 16C2.73478 16 2.48043 16.1054 2.29289 16.2929C2.10536 16.4804 2 16.7348 2 17C2 17.2652 2.10536 17.5196 2.29289 17.7071C2.48043 17.8946 2.73478 18 3 18C3.26522 18 3.51957 17.8946 3.70711 17.7071C3.89464 17.5196 4 17.2652 4 17ZM12.2929 17.7071C12.1054 17.5196 12 17.2652 12 17C12 16.7348 12.1054 16.4804 12.2929 16.2929C12.4804 16.1054 12.7348 16 13 16C13.2652 16 13.5196 16.1054 13.7071 16.2929C13.8946 16.4804 14 16.7348 14 17C14 17.2652 13.8946 17.5196 13.7071 17.7071C13.5196 17.8946 13.2652 18 13 18C12.7348 18 12.4804 17.8946 12.2929 17.7071Z" fill="#F3532E"/>
<path d="M11.8984 3.22299L13.7072 1.41421L12.293 0L10.7383 1.55466C10.2479 1.20541 9.64793 1 9 1H3C1.34315 1 0 2.34315 0 4V10C0 11.6569 1.34315 13 3 13H9C10.6569 13 12 11.6569 12 10V5.95449L10 7.95449V10C10 10.5523 9.55229 11 9 11H3C2.44772 11 2 10.5523 2 10V4C2 3.44772 2.44772 3 3 3H9C9.0896 3 9.17645 3.01178 9.25908 3.03389L6.00008 6.29289L4.20718 4.5L2.79297 5.91421L6.00008 9.12132L10 5.1214V5.12607L11.8994 3.22668L11.8984 3.22299Z" fill="#F3532E"/>
</svg>
