<svg width="42" height="36" viewBox="0 0 42 36" fill="none" xmlns="http://www.w3.org/2000/svg">
<rect width="42" height="36" fill="#F28C71"/>
<path d="M21.0117 14.1547C20.3109 14.1547 19.6547 14.4266 19.1578 14.9235C18.6633 15.4204 18.3891 16.0766 18.3891 16.7774C18.3891 17.4782 18.6633 18.1344 19.1578 18.6313C19.6547 19.1258 20.3109 19.4001 21.0117 19.4001C21.7125 19.4001 22.3688 19.1258 22.8656 18.6313C23.3602 18.1344 23.6344 17.4782 23.6344 16.7774C23.6344 16.0766 23.3602 15.4204 22.8656 14.9235C22.6229 14.6789 22.3341 14.485 22.0158 14.3531C21.6976 14.2211 21.3563 14.1537 21.0117 14.1547V14.1547ZM30.675 19.6743L29.1422 18.3641C29.2149 17.9188 29.2524 17.4641 29.2524 17.0118C29.2524 16.5594 29.2149 16.1024 29.1422 15.6594L30.675 14.3493C30.7908 14.2501 30.8737 14.1181 30.9126 13.9707C30.9515 13.8234 30.9447 13.6677 30.893 13.5243L30.8719 13.4633C30.45 12.2837 29.818 11.1903 29.0063 10.236L28.9641 10.1868C28.8655 10.0709 28.7341 9.98756 28.5873 9.94782C28.4404 9.90807 28.285 9.91375 28.1414 9.96411L26.2383 10.6415C25.5352 10.0649 24.7524 9.61021 23.9039 9.2938L23.5359 7.30396C23.5082 7.15405 23.4355 7.01615 23.3275 6.90856C23.2195 6.80097 23.0813 6.72879 22.9313 6.70161L22.868 6.68989C21.6492 6.46958 20.3649 6.46958 19.1461 6.68989L19.0828 6.70161C18.9328 6.72879 18.7946 6.80097 18.6866 6.90856C18.5786 7.01615 18.5059 7.15405 18.4781 7.30396L18.1078 9.30317C17.2674 9.6221 16.4845 10.0757 15.7899 10.6461L13.8727 9.96411C13.7291 9.91335 13.5736 9.90746 13.4266 9.94724C13.2797 9.98701 13.1483 10.0706 13.05 10.1868L13.0078 10.236C12.1976 11.1913 11.5656 12.2844 11.1422 13.4633L11.1211 13.5243C11.0156 13.8172 11.1024 14.1454 11.3391 14.3493L12.8906 15.6735C12.818 16.1141 12.7828 16.5641 12.7828 17.0094C12.7828 17.4594 12.818 17.9094 12.8906 18.3454L11.3438 19.6696C11.228 19.7687 11.1451 19.9007 11.1062 20.0481C11.0672 20.1955 11.0741 20.3512 11.1258 20.4946L11.1469 20.5555C11.5711 21.7344 12.1969 22.8243 13.0125 23.7829L13.0547 23.8321C13.1533 23.948 13.2846 24.0313 13.4315 24.071C13.5783 24.1108 13.7338 24.1051 13.8774 24.0547L15.7945 23.3727C16.493 23.9469 17.2711 24.4016 18.1125 24.7157L18.4828 26.7149C18.5106 26.8648 18.5833 27.0027 18.6913 27.1103C18.7993 27.2179 18.9375 27.2901 19.0875 27.3172L19.1508 27.329C20.3815 27.5505 21.6419 27.5505 22.8727 27.329L22.9359 27.3172C23.086 27.2901 23.2241 27.2179 23.3322 27.1103C23.4402 27.0027 23.5129 26.8648 23.5406 26.7149L23.9086 24.725C24.757 24.4063 25.5399 23.954 26.243 23.3774L28.1461 24.0547C28.2896 24.1055 28.4452 24.1114 28.5921 24.0716C28.7391 24.0318 28.8704 23.9483 28.9688 23.8321L29.0109 23.7829C29.8266 22.8196 30.4524 21.7344 30.8766 20.5555L30.8977 20.4946C30.9984 20.204 30.9117 19.8782 30.675 19.6743ZM21.0117 20.8977C18.7359 20.8977 16.8914 19.0532 16.8914 16.7774C16.8914 14.5016 18.7359 12.6571 21.0117 12.6571C23.2875 12.6571 25.132 14.5016 25.132 16.7774C25.132 19.0532 23.2875 20.8977 21.0117 20.8977Z" fill="white"/>
</svg>
