<svg width="20" height="18" viewBox="0 0 20 18" fill="none" xmlns="http://www.w3.org/2000/svg">
<path fill-rule="evenodd" clip-rule="evenodd" d="M1.2 0.600098C0.88174 0.600098 0.576515 0.726526 0.351472 0.951569C0.126428 1.17661 0 1.48184 0 1.8001V16.2001C0 16.5184 0.126428 16.8236 0.351472 17.0486C0.576515 17.2737 0.88174 17.4001 1.2 17.4001C1.51826 17.4001 1.82348 17.2737 2.04853 17.0486C2.27357 16.8236 2.4 16.5184 2.4 16.2001V1.8001C2.4 1.48184 2.27357 1.17661 2.04853 0.951569C1.82348 0.726526 1.51826 0.600098 1.2 0.600098V0.600098ZM13.5516 11.7517C13.333 11.978 13.2121 12.2811 13.2148 12.5958C13.2175 12.9104 13.3437 13.2114 13.5662 13.4339C13.7887 13.6564 14.0897 13.7826 14.4043 13.7853C14.719 13.788 15.0221 13.6671 15.2484 13.4485L18.8484 9.8485C19.0734 9.62346 19.1997 9.3183 19.1997 9.0001C19.1997 8.6819 19.0734 8.37673 18.8484 8.1517L15.2484 4.5517C15.1377 4.43709 15.0053 4.34567 14.8589 4.28278C14.7125 4.21989 14.555 4.18678 14.3957 4.1854C14.2363 4.18401 14.0783 4.21437 13.9309 4.27471C13.7834 4.33505 13.6494 4.42415 13.5367 4.53682C13.4241 4.64949 13.335 4.78348 13.2746 4.93095C13.2143 5.07843 13.1839 5.23644 13.1853 5.39578C13.1867 5.55511 13.2198 5.71258 13.2827 5.85898C13.3456 6.00539 13.437 6.1378 13.5516 6.2485L15.1032 7.8001H6C5.68174 7.8001 5.37652 7.92653 5.15147 8.15157C4.92643 8.37661 4.8 8.68184 4.8 9.0001C4.8 9.31836 4.92643 9.62358 5.15147 9.84863C5.37652 10.0737 5.68174 10.2001 6 10.2001H15.1032L13.5516 11.7517V11.7517Z" fill="black"/>
</svg>
