<svg width="21" height="22" viewBox="0 0 21 22" fill="none" xmlns="http://www.w3.org/2000/svg">
<path d="M8.19375 0.565772C6.04219 0.978272 4.47656 2.8439 4.47656 5.00015C4.47656 8.14077 7.69688 10.3392 10.6125 9.19077C12.0609 8.6189 13.1391 7.29702 13.4063 5.75484C13.8141 3.4439 12.3141 1.18452 10.0031 0.617335C9.58125 0.51421 8.61563 0.486085 8.19375 0.565772ZM9.60938 2.07046C10.4625 2.24859 11.2594 2.86734 11.6438 3.64077C12.2344 4.84077 12.0188 6.1814 11.0906 7.11421C9.90469 8.29546 8.05313 8.29546 6.8625 7.10952C5.68125 5.93765 5.68594 4.06734 6.8625 2.88609C7.59375 2.15952 8.59688 1.85952 9.60938 2.07046Z" fill="black"/>
<path d="M5.85938 11.0516C4.40625 11.2391 3.04219 11.9141 1.96875 12.9922C1.17656 13.7797 0.646875 14.6375 0.304688 15.6782C0.0375 16.5032 0.0046875 16.8032 0 18.2282C0 19.4657 0.0046875 19.5313 0.0984375 19.6532C0.15 19.7235 0.253125 19.8266 0.323438 19.8782C0.45 19.9766 0.492188 19.9766 4.73906 19.9907C8.98125 20 9.02813 20 9.21094 19.9063C9.69844 19.6579 9.75469 18.9875 9.31406 18.65L9.15 18.5235L5.31094 18.5094L1.47656 18.5V17.9235C1.47656 16.3719 1.95 15.1485 2.95313 14.0985C3.53906 13.4891 4.35469 12.9875 5.16563 12.7344C5.82188 12.5328 6.225 12.5 8.11406 12.5C9.88125 12.5 9.9 12.5 10.1016 12.3922C10.3453 12.2657 10.4766 12.0407 10.4766 11.75C10.4766 11.4594 10.3453 11.2344 10.1016 11.1078C9.9 11 9.89063 11 8.04375 11.0047C7.02188 11.0094 6.04219 11.0328 5.85938 11.0516Z" fill="black"/>
<path d="M15.4219 11.0657C15.075 11.2251 14.9766 11.4548 14.9766 12.0923V12.5704L14.6719 12.6595C14.5031 12.7063 14.2031 12.8282 14.0062 12.9313L13.65 13.1095L13.2656 12.7391C12.9797 12.4626 12.8297 12.3548 12.7078 12.336C12.2484 12.247 11.7891 12.622 11.7891 13.086C11.7891 13.3204 11.8453 13.4095 12.2437 13.8173L12.5906 14.1688L12.4078 14.5298C12.3047 14.7266 12.1828 15.022 12.1359 15.1907L12.0516 15.4907L11.5031 15.5095C11.0344 15.5235 10.9312 15.5376 10.8234 15.622C10.4812 15.8751 10.3875 16.2595 10.5797 16.6204C10.7437 16.9345 10.9078 17.0001 11.5312 17.0001H12.0469L12.1359 17.3048C12.1828 17.4735 12.3047 17.7735 12.4078 17.9704L12.5906 18.3313L12.2437 18.6829C11.8453 19.0907 11.7891 19.1798 11.7891 19.4141C11.7891 19.761 12.0609 20.1032 12.3891 20.1688C12.6984 20.2298 12.8625 20.1548 13.2703 19.761L13.65 19.386L14.0062 19.5688C14.2031 19.672 14.5031 19.7938 14.6719 19.8407L14.9766 19.9298V20.436C14.9766 21.0688 15.0516 21.2516 15.375 21.4063C15.7406 21.5845 16.1062 21.4907 16.3547 21.1532C16.4391 21.0454 16.4531 20.9423 16.4672 20.4735L16.4859 19.9251L16.7859 19.8407C16.9547 19.7938 17.25 19.672 17.4469 19.5688L17.8031 19.386L18.1828 19.761C18.5953 20.1595 18.7453 20.2298 19.0875 20.1641C19.3078 20.122 19.5422 19.8876 19.6219 19.6345C19.7156 19.3157 19.6266 19.1095 19.2141 18.6829L18.8625 18.3266L19.0453 17.9704C19.1484 17.7735 19.2703 17.4782 19.3172 17.3095L19.4016 17.0095L19.95 16.9907C20.5453 16.9766 20.6437 16.9391 20.8547 16.6532C21 16.461 20.9906 16.0438 20.8406 15.8329C20.6625 15.5845 20.4234 15.5001 19.875 15.5001H19.4062L19.3172 15.1954C19.2703 15.0266 19.1484 14.7266 19.0453 14.5298L18.8625 14.1735L19.2141 13.8173C19.6219 13.3954 19.7156 13.1798 19.6219 12.8657C19.5469 12.622 19.3594 12.4298 19.1156 12.3595C18.7781 12.2563 18.6234 12.322 18.1875 12.7391L17.8031 13.1095L17.4469 12.9313C17.25 12.8282 16.9547 12.7063 16.7859 12.6595L16.4859 12.5751L16.4672 12.0266C16.4531 11.4313 16.4156 11.3329 16.1391 11.1266C15.9797 11.0095 15.6094 10.9766 15.4219 11.0657ZM16.2656 14.0704C17.0719 14.2813 17.6953 14.9095 17.9062 15.7204C18.2109 16.8876 17.4656 18.1157 16.2656 18.4298C15.0891 18.7345 13.8609 17.9891 13.5469 16.7891C13.1297 15.1813 14.6578 13.6532 16.2656 14.0704Z" fill="black"/>
</svg>
