<svg width="720" height="341" viewBox="0 0 720 341" fill="none" xmlns="http://www.w3.org/2000/svg">
<path d="M1223 -133.013C1193.12 -200.067 1131.67 -240.555 1043.15 -282.784C1035.82 -286.279 1028.54 -289.887 1021.13 -293.165C996.514 -303.98 970.308 -313.012 943.917 -312.004C867.141 -309.223 816.591 -240.313 769.215 -188.999C729.295 -145.759 690.623 -98.8062 647.77 -51.2686C633.346 -35.2663 618.848 -19.2824 603.929 -3.63333C571.581 30.3129 532.582 65.0184 487.331 67.6308C441.514 70.2728 405.806 41.1598 371.259 17.5191C330.985 -10.0076 285.299 -33.4988 233.519 -43.0555C215.481 -46.3737 196.626 -47.8398 177.672 -47.1686C142.257 -45.9594 106.394 -37.383 74.9721 -19.6635C37.2468 1.61718 8.32164 34.145 -17.1594 66.4248C-68.9318 131.774 -109.727 199.841 -138.307 273.362C-146.839 295.301 -154.275 317.7 -160.529 340.651" stroke="#1A3447" stroke-opacity="0.2" stroke-width="2" stroke-miterlimit="10"/>
</svg>
