<svg width="20" height="16" viewBox="0 0 20 16" fill="none" xmlns="http://www.w3.org/2000/svg">
<path fill-rule="evenodd" clip-rule="evenodd" d="M14.0002 0H0V13.118L0.00236724 13.1192C0.032261 13.8715 0.344233 14.5869 0.87868 15.1213C1.44129 15.6839 2.20435 16 3 16C3.79565 16 4.55871 15.6839 5.12132 15.1213C5.44073 14.8019 5.68067 14.4179 5.82843 14H10.1716C10.3193 14.4179 10.5593 14.8019 10.8787 15.1213C11.4413 15.6839 12.2043 16 13 16C13.7957 16 14.5587 15.6839 15.1213 15.1213C15.4407 14.8019 15.6807 14.4179 15.8284 14H20V8C20 7.61026 19.9073 7.19179 19.8053 6.83465C19.5918 6.08758 19.2612 5.33587 19.0642 4.90907C18.8734 4.49572 18.6564 4.11721 18.3321 3.79289C17.9731 3.4339 17.3588 3 16.5 3H14.0002V0ZM15.8284 12H18V9.99999L15 10V8H18C18 7.49563 17.7551 6.95526 17.5715 6.49639C17.3883 6.03833 17.1062 5 16.5 5H14.0002V10.1716C14.418 10.3194 14.802 10.5593 15.1213 10.8787C15.4407 11.1981 15.6807 11.5821 15.8284 12ZM12 10.1716L12.0002 2H2V10.1716C2.3182 10.0591 2.65606 10 3 10C3.79565 10 4.55871 10.3161 5.12132 10.8787C5.44073 11.1981 5.68067 11.5821 5.82843 12H10.1716C10.3193 11.5821 10.5593 11.1981 10.8787 10.8787C11.1981 10.5593 11.5821 10.3193 12 10.1716ZM2.29289 12.2929C2.48043 12.1054 2.73478 12 3 12C3.26522 12 3.51957 12.1054 3.70711 12.2929C3.89464 12.4804 4 12.7348 4 13C4 13.2652 3.89464 13.5196 3.70711 13.7071C3.51957 13.8946 3.26522 14 3 14C2.73478 14 2.48043 13.8946 2.29289 13.7071C2.10536 13.5196 2 13.2652 2 13C2 12.7348 2.10536 12.4804 2.29289 12.2929ZM12.2929 12.2929C12.4804 12.1054 12.7348 12 13 12C13.2652 12 13.5196 12.1054 13.7071 12.2929C13.8946 12.4804 14 12.7348 14 13C14 13.2652 13.8946 13.5196 13.7071 13.7071C13.5196 13.8946 13.2652 14 13 14C12.7348 14 12.4804 13.8946 12.2929 13.7071C12.1054 13.5196 12 13.2652 12 13C12 12.7348 12.1054 12.4804 12.2929 12.2929Z" fill="black"/>
</svg>
