<svg width="20" height="20" viewBox="0 0 20 20" fill="none" xmlns="http://www.w3.org/2000/svg">
<path fill-rule="evenodd" clip-rule="evenodd" d="M4 2H16C17.1046 2 18 2.89543 18 4V16C18 17.1046 17.1046 18 16 18H4C2.89543 18 2 17.1046 2 16V13.3318L6.06367 9.42641L9.06337 12L14.0637 7.41421V10H16.0637V4H10V6H12.6494L8.80853 9.42641L5.80884 6.85282L2 10.5457V4C2 2.89543 2.89543 2 4 2ZM0 4C0 1.79086 1.79086 0 4 0H16C18.2091 0 20 1.79086 20 4V16C20 18.2091 18.2091 20 16 20H4C1.79086 20 0 18.2091 0 16V4Z" fill="#F3532E"/>
</svg>
