<svg width="20" height="20" viewBox="0 0 20 20" fill="none" xmlns="http://www.w3.org/2000/svg">
<path d="M11 9.99282V11.9914H17V9.99282H11Z" fill="#F3532E"/>
<path fill-rule="evenodd" clip-rule="evenodd" d="M18.0188 19.9855L18.0232 19.9854C18.3446 19.9739 18.6655 19.8925 18.9525 19.7471C19.1928 19.6252 19.4646 19.428 19.6745 19.1148C19.8892 18.7945 20 18.4113 20 17.9871V2.98315C20 1.50651 18.9629 0 17.3333 0H10.6667C9.03715 0 8 1.50651 8 2.98315V17.8907C8 18.3217 8.10016 18.7119 8.3018 19.0433C8.5022 19.3726 8.7691 19.5886 9.01928 19.7256C9.31364 19.8869 9.65404 19.9811 9.99057 19.9856C14.9002 20.0179 17.9972 19.9858 18.0188 19.9855ZM10.6667 1.99856C10.4552 1.99856 10 2.26847 10 2.98315V5.99569H18V2.98315C18 2.26847 17.5448 1.99856 17.3333 1.99856H10.6667ZM18 7.99426V17.9809C18 17.9871 12.4362 17.9871 10 17.9871V7.99426H18Z" fill="#F3532E"/>
<path fill-rule="evenodd" clip-rule="evenodd" d="M2 11.9914V17.0732C1.99999 17.4945 2.35381 17.9871 2.99512 17.9871C3.63963 17.9871 3.99509 17.4912 3.99509 17.0732C3.99509 16.7616 3.99603 16.6107 3.99676 16.4929C3.9977 16.3416 3.99831 16.2451 3.99613 15.9328C3.99701 15.9064 3.99862 15.8723 4.00153 15.8315C4.00734 15.7503 4.01847 15.6408 4.03994 15.512C4.08211 15.2592 4.1683 14.9068 4.35066 14.5424C4.53498 14.174 4.82715 13.7753 5.28414 13.4708C5.74739 13.1622 6.32011 12.9907 6.99509 12.9907L8 12.9907V14.9892L6.99509 14.9893C6.67008 14.9893 6.49279 15.0676 6.39354 15.1337C6.28802 15.204 6.2052 15.3049 6.13951 15.4362C6.07187 15.5714 6.03306 15.7186 6.01273 15.8406C6.00296 15.8992 5.99846 15.9458 5.99645 15.9739C5.99562 15.9855 5.99524 15.9936 5.99509 15.9976V17.0732C5.99509 18.4831 4.8529 19.9857 2.99512 19.9857C1.13413 19.9857 -2.13379e-05 18.4797 3.01089e-10 17.0732V10.9921C3.01089e-10 8.96798 1.1685 7.52219 1.7097 6.95472L1.718 6.94602L6 2.66706V8.99354C6 10.6492 4.65685 11.9914 3 11.9914H2ZM3.14968 8.34176L4 7.49205V8.99354C4 9.54543 3.55228 9.99282 3 9.99282H2.15672C2.39532 9.23391 2.8532 8.65434 3.14968 8.34176Z" fill="#F3532E"/>
</svg>
