<svg width="20" height="20" viewBox="0 0 20 20" fill="none" xmlns="http://www.w3.org/2000/svg">
<path fill-rule="evenodd" clip-rule="evenodd" d="M10.0001 5.53518V12.4648L14 15.1315V2.86853L10.0001 5.53518ZM8.0001 12V6H6.0001C5.82679 6 5.54456 6.06022 5.3344 6.21153C5.17523 6.32614 5.0001 6.52592 5.0001 7V11C5.0001 11.1733 5.06032 11.4555 5.21163 11.6657C5.32623 11.8249 5.52602 12 6.0001 12H8.0001ZM8.69732 4L14.4453 0.167953L16 1V17L14.4453 17.832L8.69732 14H6.0001C4.87418 14 4.07396 13.5085 3.58856 12.8343C3.39486 12.5653 3.25873 12.2786 3.16657 12H2.0001V11C2.0001 12 2.0001 12 2.0001 12L1.99809 12L1.99598 12L1.99144 12L1.9811 11.9998L1.95555 11.9992C1.93643 11.9986 1.91302 11.9974 1.88588 11.9955C1.83195 11.9917 1.76144 11.9844 1.67945 11.9708C1.52021 11.9442 1.2926 11.8893 1.05288 11.7694C0.809253 11.6476 0.535203 11.4492 0.324296 11.1328C0.109224 10.8102 0.000105023 10.425 9.66787e-05 10L0 8.00005L1 8C0 7.9999 5.96046e-07 7.99891 5.96046e-07 7.99891L2.20537e-06 7.9979L8.64267e-06 7.99578L3.618e-05 7.99124L0.000162423 7.98091L0.00080353 7.95536C0.00144267 7.93624 0.00256467 7.91282 0.00450546 7.88569C0.00836271 7.83176 0.0155889 7.76125 0.0292617 7.67926C0.0558171 7.52002 0.110782 7.29242 0.230656 7.05272C0.352487 6.8091 0.550926 6.53507 0.867281 6.32418C1.1899 6.10912 1.57511 6 2.0001 6H3.14684C3.34092 5.38462 3.71198 4.91521 4.16579 4.58847C4.78897 4.13978 5.50674 4 6.0001 4H8.69732ZM3.0001 8H2.0035C2.00298 8.00269 2.00249 8.00543 2.00202 8.00824C2.00104 8.01411 2.0004 8.01895 2 8.02241L2.0001 9.99652C2.00275 9.99703 2.00547 9.99752 2.00825 9.99798C2.01413 9.99896 2.01897 9.9996 2.02244 10H3.0001V8ZM2.00426 10.0541L2.00464 10.0555L2.00426 10.0541ZM1.94598 8.00417L1.94459 8.00455L1.94598 8.00417Z" fill="#616161"/>
<path fill-rule="evenodd" clip-rule="evenodd" d="M3.2 12.4L4 12H9L9.8 13.6L5.3 19.6L4.00386 19.8682L0.503861 17.8682L0.2 16.4L3.2 12.4ZM4.5 14L2.47967 16.6938L4.22967 17.6938L7 14H4.5Z" fill="#616161"/>
<path fill-rule="evenodd" clip-rule="evenodd" d="M18 13L20 15V13L18 11V13Z" fill="#616161"/>
<path fill-rule="evenodd" clip-rule="evenodd" d="M20 5L18 7V5L20 3V5Z" fill="#616161"/>
<path fill-rule="evenodd" clip-rule="evenodd" d="M20 10H18V8H20V10Z" fill="#616161"/>
</svg>
