<svg width="20" height="20" viewBox="0 0 20 20" fill="none" xmlns="http://www.w3.org/2000/svg">
<path fill-rule="evenodd" clip-rule="evenodd" d="M0.015625 5.24521e-06L5.83707 7.37247C5.56008 7.57738 5.29699 7.80366 5.05041 8.05024C3.73766 9.363 3.00016 11.1435 3.00016 13C3.00016 14.8565 3.73766 16.637 5.05041 17.9497C6.36317 19.2625 8.14365 20 10.0002 20C11.8567 20 13.6372 19.2625 14.9499 17.9497C16.2627 16.637 17.0002 14.8565 17.0002 13C17.0002 11.1435 16.2627 9.363 14.9499 8.05024C14.6199 7.72027 14.2604 7.42664 13.8775 7.17193L20 0L17.3669 5.24521e-06L11.978 6.2852C11.7581 6.22043 11.5348 6.16639 11.3088 6.12338L6.5451 5.24521e-06H4.01116L8.7644 6.1099C8.37691 6.1794 7.997 6.2813 7.62856 6.41398L2.56396 5.24521e-06H0.015625ZM6.46463 9.46446C7.40231 8.52678 8.67408 7.99999 10.0002 7.99999C11.3262 7.99999 12.598 8.52678 13.5357 9.46446C14.4734 10.4021 15.0002 11.6739 15.0002 13C15.0002 14.3261 14.4734 15.5978 13.5357 16.5355C12.598 17.4732 11.3262 18 10.0002 18C8.67408 18 7.40231 17.4732 6.46463 16.5355C5.52694 15.5978 5.00016 14.3261 5.00016 13C5.00016 11.6739 5.52694 10.4021 6.46463 9.46446Z" fill="#616161"/>
<path d="M13.3432 5.24521e-06L11.3088 2.34099L12.5 4L15.9638 5.24521e-06H13.3432Z" fill="#616161"/>
</svg>
