<svg width="20" height="20" viewBox="0 0 20 20" fill="none" xmlns="http://www.w3.org/2000/svg">
<path fill-rule="evenodd" clip-rule="evenodd" d="M13 5C13 7.76142 10.7614 10 8 10C5.23858 10 3 7.76142 3 5C3 2.23858 5.23858 0 8 0C10.7614 0 13 2.23858 13 5ZM11 5C11 6.65685 9.65685 8 8 8C6.34315 8 5 6.65685 5 5C5 3.34315 6.34315 2 8 2C9.65685 2 11 3.34315 11 5Z" fill="#616161"/>
<path d="M18 5C18 7.20914 16.2091 9 14 9C14 9 15 8 15 5C15 2 14 1 14 1C16.2091 1 18 2.79086 18 5Z" fill="#616161"/>
<path fill-rule="evenodd" clip-rule="evenodd" d="M8 12C3.57781 12 0.938223 14.6521 0.125843 16.1144L0 16.3409V20H16V16.3409L15.8742 16.1144C15.0618 14.6521 12.4222 12 8 12ZM2 18V16.8806C2.67534 15.8682 4.66328 14 8 14C11.3367 14 13.3247 15.8682 14 16.8806V18H2Z" fill="#616161"/>
<path d="M18 16C18 15 16 12.5 14 12V10C17 10.5 20 14 20 15V18H18V16Z" fill="#616161"/>
</svg>
