<svg width="20" height="20" viewBox="0 0 20 20" fill="none" xmlns="http://www.w3.org/2000/svg">
<path fill-rule="evenodd" clip-rule="evenodd" d="M18.8929 8.54979L18.8941 8.55208L18.8959 8.55566L18.8987 8.56142L18.9086 8.58139C18.9169 8.59834 18.9287 8.62251 18.9435 8.65314C18.9731 8.71436 19.0146 8.80166 19.0642 8.90907C19.163 9.12314 19.2954 9.42082 19.4285 9.75361C19.5608 10.0843 19.6989 10.4623 19.8053 10.8347C19.9073 11.1918 20 11.6103 20 12V18H15.8284C15.6807 18.4179 15.4407 18.8019 15.1213 19.1213C14.5587 19.6839 13.7957 20 13 20C12.2043 20 11.4413 19.6839 10.8787 19.1213C10.5593 18.8019 10.3193 18.4179 10.1716 18H5.82843C5.68067 18.4179 5.44073 18.8019 5.12132 19.1213C4.55871 19.6839 3.79565 20 3 20C2.20435 20 1.44129 19.6839 0.87868 19.1213C0.31607 18.5587 0 17.7956 0 17C0 16.2044 0.31607 15.4413 0.87868 14.8787C1.44129 14.3161 2.20435 14 3 14C3.79565 14 4.55871 14.3161 5.12132 14.8787C5.44073 15.1981 5.68067 15.5821 5.82843 16H10.1716C10.3193 15.5821 10.5593 15.1981 10.8787 14.8787C11.4413 14.3161 12.2044 14 13 14C13.7956 14 14.5587 14.3161 15.1213 14.8787C15.4407 15.1981 15.6807 15.5821 15.8284 16H18V14H15V12H18C18 11.8897 17.9677 11.6832 17.8822 11.3841C17.8011 11.1002 17.6892 10.7907 17.5715 10.4964C17.4546 10.2042 17.337 9.93936 17.2483 9.74718C17.2041 9.65147 17.1675 9.5747 17.1424 9.52264L17.1139 9.46402L17.1099 9.45593L17.1083 9.45317C17.1028 9.44347 17.0913 9.42416 17.0742 9.39845C17.0388 9.34536 16.9857 9.2749 16.9179 9.20711C16.7769 9.0661 16.6412 9 16.5 9H14V7H16.5C17.3588 7 17.9731 7.4339 18.3321 7.79289C18.5143 7.9751 18.6487 8.15465 18.7383 8.28905C18.7837 8.3571 18.8191 8.4159 18.8448 8.46089C18.8577 8.48345 18.8683 8.50273 18.8765 8.51818L18.8872 8.53849L18.8912 8.54641L18.8929 8.54979ZM4 17C4 16.7348 3.89464 16.4804 3.70711 16.2929C3.51957 16.1054 3.26522 16 3 16C2.73478 16 2.48043 16.1054 2.29289 16.2929C2.10536 16.4804 2 16.7348 2 17C2 17.2652 2.10536 17.5196 2.29289 17.7071C2.48043 17.8946 2.73478 18 3 18C3.26522 18 3.51957 17.8946 3.70711 17.7071C3.89464 17.5196 4 17.2652 4 17ZM12.2929 17.7071C12.1054 17.5196 12 17.2652 12 17C12 16.7348 12.1054 16.4804 12.2929 16.2929C12.4804 16.1054 12.7348 16 13 16C13.2652 16 13.5196 16.1054 13.7071 16.2929C13.8946 16.4804 14 16.7348 14 17C14 17.2652 13.8946 17.5196 13.7071 17.7071C13.5196 17.8946 13.2652 18 13 18C12.7348 18 12.4804 17.8946 12.2929 17.7071Z" fill="#616161"/>
<path fill-rule="evenodd" clip-rule="evenodd" d="M4.87467 13H7.12571C7.26664 12.9999 7.40331 12.9531 7.51308 12.8673C7.62284 12.7815 7.69912 12.662 7.72928 12.5284L7.98469 11.401C8.32026 11.2585 8.63843 11.0802 8.93334 10.8694L10.0694 11.2204C10.2038 11.262 10.3489 11.2577 10.4805 11.2083C10.6122 11.1588 10.7224 11.0672 10.7929 10.9486L11.9184 9.0568C12.0619 8.8126 12.0124 8.5042 11.7991 8.3134L10.9178 7.5334C10.9579 7.18007 10.9579 6.82353 10.9178 6.4702L11.7991 5.6902C12.0124 5.5 12.0619 5.191 11.9184 4.9468L10.7929 3.055C10.7224 2.93652 10.6123 2.84497 10.4808 2.79554C10.3493 2.7461 10.2044 2.74175 10.07 2.7832L8.93334 3.1342C8.7911 3.0328 8.6433 2.9386 8.49055 2.8528C8.32667 2.7598 8.15722 2.6764 7.98407 2.602L7.72928 1.4722C7.69924 1.33852 7.62302 1.21881 7.51324 1.13293C7.40346 1.04705 7.26673 1.00014 7.12571 1H4.87467C4.73365 1.00014 4.59692 1.04705 4.48714 1.13293C4.37736 1.21881 4.30114 1.33852 4.2711 1.4722L4.01879 2.6014C3.85429 2.6704 3.6935 2.7478 3.53704 2.833C3.37502 2.9242 3.21794 3.025 3.06704 3.133L1.93102 2.782C1.79655 2.7404 1.65146 2.74467 1.51984 2.79411C1.38823 2.84355 1.278 2.93519 1.20747 3.0538L0.0819531 4.9456C0.0120037 5.06438 -0.0142827 5.2027 0.00740245 5.33787C0.0290876 5.47305 0.0974576 5.59706 0.201307 5.6896L1.08255 6.4678C1.04247 6.82113 1.04247 7.17767 1.08255 7.531L0.201307 8.311C0.0976045 8.4035 0.0293273 8.52741 0.00764573 8.66245C-0.0140358 8.7975 0.012162 8.93568 0.0819531 9.0544L1.20994 10.945C1.28047 11.0636 1.3907 11.1552 1.52232 11.2047C1.65393 11.2541 1.79902 11.2584 1.93349 11.2168L3.06952 10.8658C3.36465 11.0768 3.68302 11.2553 4.01879 11.398L4.27048 12.5284C4.30066 12.6621 4.37704 12.7817 4.48693 12.8675C4.59682 12.9533 4.73363 13 4.87467 13ZM4.88999 9.7411C5.56369 10.1998 6.44832 10.2038 7.12613 9.75119L8.11059 9.09386C8.6663 8.72281 9 8.09875 9 7.43056V6.56944C9 5.90125 8.6663 5.27719 8.11059 4.90614L7.12613 4.24881C6.44832 3.79624 5.56369 3.80023 4.88999 4.2589L3.94149 4.90465C3.39443 5.27711 3.06704 5.89606 3.06704 6.55787V7.44213C3.06704 8.10394 3.39443 8.72289 3.94149 9.09535L4.88999 9.7411Z" fill="#616161"/>
</svg>
