<svg width="20" height="20" viewBox="0 0 20 20" fill="none" xmlns="http://www.w3.org/2000/svg">
<path d="M10 2H20V4H10V2Z" fill="#616161"/>
<path d="M10 12H20V14H10V12Z" fill="#616161"/>
<path d="M10 6H16V8H10V6Z" fill="#616161"/>
<path d="M10 16H16V18H10V16Z" fill="#616161"/>
<path fill-rule="evenodd" clip-rule="evenodd" d="M0 14C0 12.3431 1.34315 11 3 11H5C6.65685 11 8 12.3431 8 14V16C8 17.6569 6.65685 19 5 19H3C1.34315 19 0 17.6569 0 16V14ZM3 13C2.44772 13 2 13.4477 2 14V16C2 16.5523 2.44772 17 3 17H5C5.55228 17 6 16.5523 6 16V14C6 13.4477 5.55228 13 5 13H3Z" fill="#616161"/>
<path fill-rule="evenodd" clip-rule="evenodd" d="M0 4C0 2.34315 1.34315 1 3 1H5C6.65685 1 8 2.34315 8 4V6C8 7.65685 6.65685 9 5 9H3C1.34315 9 0 7.65685 0 6V4ZM3 3C2.44772 3 2 3.44772 2 4V6C2 6.55228 2.44772 7 3 7H5C5.55228 7 6 6.55228 6 6V4C6 3.44772 5.55228 3 5 3H3Z" fill="#616161"/>
</svg>
