<svg width="20" height="20" viewBox="0 0 20 20" fill="none" xmlns="http://www.w3.org/2000/svg">
<path fill-rule="evenodd" clip-rule="evenodd" d="M13 8C14.6569 8 16 6.65685 16 5C16 3.34315 14.6569 2 13 2C11.3431 2 10 3.34315 10 5C10 6.65685 11.3431 8 13 8ZM13 10C15.7614 10 18 7.76142 18 5C18 2.23858 15.7614 0 13 0C10.2386 0 8 2.23858 8 5C8 7.76142 10.2386 10 13 10ZM0 8H6V10H9L10 12H6V15.4064L10.0353 17.6074C10.3299 17.7681 10.6854 17.7703 10.982 17.6133L17.4056 14.2126C17.5945 14.1126 17.6775 13.8863 17.5981 13.6879C17.5124 13.4736 17.2692 13.3694 17.0548 13.4551L13.1926 15H8V13H12.8074L16.3121 11.5981C17.552 11.1022 18.9591 11.7053 19.4551 12.9452C19.9141 14.0928 19.4338 15.4018 18.3414 15.9802L11.9178 19.3809C11.0281 19.8519 9.96138 19.8453 9.07757 19.3632L6 17.6845V20H0V8ZM2 10V18H4V10H2Z" fill="#616161"/>
</svg>
