<svg width="20" height="20" viewBox="0 0 20 20" fill="none" xmlns="http://www.w3.org/2000/svg">
<path fill-rule="evenodd" clip-rule="evenodd" d="M5.31006 0.406441C8.02601 -0.506045 11.1488 0.117919 13.3154 2.28409C15.3309 4.29915 16.0117 7.14155 15.3621 9.71439L19.7035 14.0125C20.2352 14.5388 19.9078 15.5338 19.7177 16.1143C19.481 16.8375 19.0306 17.7866 18.1731 18.5789C17.3398 19.3488 16.4902 19.7091 15.8292 19.8719C15.501 19.9528 15.2216 19.9845 15.0154 19.9952C14.9123 20.0006 14.8269 20.0007 14.7623 19.9991L14.6325 19.992C14.3989 19.97 14.1805 19.8667 14.0154 19.7L9.71633 15.3593C7.14311 16.0088 4.30016 15.3283 2.28465 13.3132C0.118004 11.147 -0.506193 8.02461 0.406562 5.30899C0.516833 4.98091 0.788914 4.73318 1.12587 4.65406C1.46282 4.57494 1.81672 4.67569 2.06149 4.9204L5.93304 8.79117L8.07804 8.07631L8.79291 5.93215L4.92151 2.06155C4.6767 1.81679 4.57589 1.46283 4.65501 1.12582C4.73413 0.788812 4.98191 0.51669 5.31006 0.406441ZM15.1225 17.9757C15.1902 17.9653 15.2669 17.9507 15.3508 17.93C15.7274 17.8372 16.262 17.6216 16.8158 17.1099C17.3454 16.6206 17.6477 16.0091 17.817 15.4921C17.8676 15.3374 17.905 15.1953 17.9323 15.0733L13.5303 10.7152C13.2578 10.4454 13.1635 10.0436 13.2877 9.68078C13.9824 7.65037 13.5185 5.31522 11.9014 3.69845C10.7413 2.53864 9.21146 1.97207 7.68954 2.00088L10.6441 4.95485C10.912 5.22269 11.0056 5.61893 10.8857 5.97831L9.81722 9.18322C9.71767 9.48182 9.48334 9.71612 9.18473 9.81564L5.97916 10.8839C5.61987 11.0037 5.22377 10.9102 4.95596 10.6424L2.00089 7.68796C1.97202 9.20948 2.53865 10.739 3.69872 11.8988C5.31586 13.5156 7.65169 13.9796 9.68275 13.2849C10.0455 13.1608 10.4471 13.255 10.7169 13.5274L15.1225 17.9757Z" fill="#616161"/>
</svg>
