<svg width="20" height="20" viewBox="0 0 20 20" fill="none" xmlns="http://www.w3.org/2000/svg">
<path fill-rule="evenodd" clip-rule="evenodd" d="M15.1102 11.1738C15.7013 9.95178 16 8.86882 16 8C16 4.68629 13.3137 2 10 2C6.68629 2 4 4.68629 4 8C4 8.86882 4.29869 9.95178 4.88975 11.1738C5.47139 12.3764 6.2772 13.5927 7.14241 14.6908C8.00671 15.7878 8.89396 16.721 9.60579 17.3616C9.74992 17.4913 9.8817 17.6044 10 17.7014C10.1183 17.6044 10.2501 17.4913 10.3942 17.3616C11.106 16.721 11.9933 15.7878 12.8576 14.6908C13.7228 13.5927 14.5286 12.3764 15.1102 11.1738ZM10 20C11.1429 20 18 13.1429 18 8C18 3.58172 14.4183 0 10 0C5.58172 0 2 3.58172 2 8C2 13.1429 8.85714 20 10 20Z" fill="#616161"/>
<path d="M13 8C13 9.65685 11.6569 11 10 11C8.34315 11 7 9.65685 7 8C7 6.34315 8.34315 5 10 5C11.6569 5 13 6.34315 13 8Z" fill="#616161"/>
</svg>
