<svg width="20" height="20" viewBox="0 0 20 20" fill="none" xmlns="http://www.w3.org/2000/svg">
<path d="M8 14.0657V7.93426C8 7.53491 8.44507 7.29671 8.77735 7.51823L13.376 10.584C13.6728 10.7819 13.6728 11.2181 13.376 11.416L8.77735 14.4818C8.44507 14.7033 8 14.4651 8 14.0657Z" fill="#616161"/>
<path fill-rule="evenodd" clip-rule="evenodd" d="M11 2.05493C10.6717 2.01863 10.338 2 10 2C5.02944 2 1 6.02944 1 11C1 15.9706 5.02944 20 10 20C14.9706 20 19 15.9706 19 11C19 7.87609 17.4084 5.12392 14.9919 3.51013L13.7364 5.07952C15.6976 6.31986 17 8.50784 17 11C17 14.866 13.866 18 10 18C6.13401 18 3 14.866 3 11C3 7.13401 6.13401 4 10 4C10.3395 4 10.6734 4.02417 11 4.07089V2.05493Z" fill="#616161"/>
<path fill-rule="evenodd" clip-rule="evenodd" d="M10.277 0L13 2.75648L10.3299 6L9 4.87807L10.6579 2.86403L9.0529 1.23922L10.277 0Z" fill="#616161"/>
</svg>
