<svg width="20" height="20" viewBox="0 0 20 20" fill="none" xmlns="http://www.w3.org/2000/svg">
<path d="M18.8929 8.54979L18.8941 8.55207L18.895 8.55385L18.8959 8.55565L18.8987 8.56141L18.9086 8.58138C18.9169 8.59834 18.9287 8.6225 18.9435 8.65313C18.9731 8.71435 19.0146 8.80165 19.0642 8.90906C19.163 9.12313 19.2954 9.42081 19.4285 9.7536C19.5608 10.0843 19.6989 10.4623 19.8053 10.8346C19.9073 11.1918 20 11.6103 20 12V14V18H14V16H18V13.9994V12C18 11.8897 17.9677 11.6832 17.8822 11.3841C17.8011 11.1002 17.6892 10.7907 17.5715 10.4964C17.4546 10.2042 17.337 9.93935 17.2483 9.74718C17.2041 9.65146 17.1676 9.57469 17.1424 9.52263L17.1139 9.46402L17.1099 9.45592L17.1083 9.45316C17.1028 9.44346 17.0913 9.42415 17.0742 9.39844C17.0388 9.34535 16.9857 9.27489 16.9179 9.2071C16.7769 9.06609 16.6412 8.99999 16.5 8.99999H14V6.99999H16.5C17.3588 6.99999 17.9731 7.43389 18.3321 7.79288C18.5143 7.9751 18.6487 8.15464 18.7383 8.28904C18.7837 8.35709 18.8191 8.4159 18.8448 8.46088C18.8577 8.48344 18.8683 8.50272 18.8765 8.51817L18.8872 8.53848L18.8912 8.5464L18.8929 8.54979Z" fill="#616161"/>
<path d="M4 18V16H12V18H4Z" fill="#616161"/>
<path d="M12 1.99999H14V15H12V1.99999Z" fill="#616161"/>
<path d="M15 12H18V13.9994L15 14V12Z" fill="#616161"/>
<path fill-rule="evenodd" clip-rule="evenodd" d="M10.8787 14.8787C11.4413 14.3161 12.2044 14 13 14C13.7956 14 14.5587 14.3161 15.1213 14.8787C15.6839 15.4413 16 16.2043 16 17C16 17.7956 15.6839 18.5587 15.1213 19.1213C14.5587 19.6839 13.7957 20 13 20C12.2043 20 11.4413 19.6839 10.8787 19.1213C10.3161 18.5587 10 17.7956 10 17C10 16.2043 10.3161 15.4413 10.8787 14.8787ZM13 16C12.7348 16 12.4804 16.1053 12.2929 16.2929C12.1054 16.4804 12 16.7348 12 17C12 17.2652 12.1054 17.5196 12.2929 17.7071C12.4804 17.8946 12.7348 18 13 18C13.2652 18 13.5196 17.8946 13.7071 17.7071C13.8946 17.5196 14 17.2652 14 17C14 16.7348 13.8946 16.4804 13.7071 16.2929C13.5196 16.1053 13.2652 16 13 16Z" fill="#616161"/>
<path d="M5.82843 16H4V17C4 17.2652 3.89464 17.5196 3.70711 17.7071C3.51957 17.8946 3.26522 18 3 18C2.73478 18 2.48043 17.8946 2.29289 17.7071C2.10536 17.5196 2 17.2652 2 17V16H0.171571C0.0590626 16.3182 0 16.656 0 17C0 17.7956 0.31607 18.5587 0.87868 19.1213C1.44129 19.6839 2.20435 20 3 20C3.79565 20 4.55871 19.6839 5.12132 19.1213C5.68393 18.5587 6 17.7956 6 17C6 16.656 5.94094 16.3182 5.82843 16Z" fill="#616161"/>
<path fill-rule="evenodd" clip-rule="evenodd" d="M4.32802 0.0932248C4.54705 0.0302549 4.77495 -0.000270704 5.00058 1.80832e-06C5.22621 0.000274321 5.45406 0.0313509 5.67296 0.094905C5.89125 0.158278 6.10689 0.255844 6.30221 0.392799C6.35171 0.427513 6.39797 0.466644 6.4404 0.509714L9.5146 3.62979C9.77058 3.8422 9.99789 4.18169 10.0001 4.62663L10.0001 4.6316L10.0001 12.2831L10.0001 12.2867C9.998 12.8822 9.65653 13.3407 9.26737 13.6109C8.88115 13.8791 8.41255 13.9992 7.96947 14L7.96777 14H2.03245L2.03075 14C1.58767 13.9992 1.11907 13.8791 0.732848 13.6109C0.343695 13.3407 0.00221866 12.8822 0.000117779 12.2867L0.00011158 12.2831L0.000111938 4.62311C0.00232357 4.1782 0.22961 3.83873 0.485565 3.62632L3.5572 0.508044C3.60042 0.464162 3.64761 0.424367 3.69816 0.389167C3.89378 0.252943 4.1096 0.156017 4.32802 0.0932248ZM4.99816 2C4.95269 1.99995 4.91207 2.00632 4.88062 2.01537L4.87943 2.01571L2.00011 4.93876L2.00011 11.9988C2.01083 11.9995 2.02194 12 2.03338 12H7.96684C7.97828 12 7.98939 11.9995 8.00011 11.9988L8.00011 4.94231L5.11688 2.01605L5.11534 2.0156C5.08412 2.00653 5.04363 2.00006 4.99816 2Z" fill="#616161"/>
<path d="M5.00011 6C4.80233 6 4.60899 5.94135 4.44454 5.83147C4.28009 5.72159 4.15192 5.56541 4.07623 5.38268C4.00055 5.19996 3.98074 4.99889 4.01933 4.80491C4.05791 4.61093 4.15315 4.43275 4.29301 4.29289C4.43286 4.15304 4.61104 4.0578 4.80502 4.01922C4.999 3.98063 5.20007 4.00043 5.3828 4.07612C5.56552 4.15181 5.7217 4.27998 5.83158 4.44443C5.94146 4.60888 6.00011 4.80222 6.00011 5C6.00011 5.26522 5.89475 5.51957 5.70722 5.70711C5.51968 5.89464 5.26533 6 5.00011 6Z" fill="#616161"/>
</svg>
