<svg width="20" height="20" viewBox="0 0 20 20" fill="none" xmlns="http://www.w3.org/2000/svg">
<path fill-rule="evenodd" clip-rule="evenodd" d="M14.0002 2H0V15.118L0.00236724 15.1192C0.032261 15.8715 0.344233 16.5869 0.87868 17.1213C1.44129 17.6839 2.20435 18 3 18C3.79565 18 4.55871 17.6839 5.12132 17.1213C5.44073 16.8019 5.68067 16.4179 5.82843 16H10.1716C10.3193 16.4179 10.5593 16.8019 10.8787 17.1213C11.4413 17.6839 12.2043 18 13 18C13.7957 18 14.5587 17.6839 15.1213 17.1213C15.4407 16.8019 15.6807 16.4179 15.8284 16H20V10C20 9.61026 19.9073 9.19179 19.8053 8.83465C19.5918 8.08758 19.2612 7.33587 19.0642 6.90907C18.8734 6.49572 18.6564 6.11721 18.3321 5.79289C17.9731 5.4339 17.3588 5 16.5 5H14.0002V2ZM15.8284 14H18V12L15 12V10H18C18 9.49563 17.7551 8.95526 17.5715 8.49639C17.3883 8.03833 17.1062 7 16.5 7H14.0002V12.1716C14.418 12.3194 14.802 12.5593 15.1213 12.8787C15.4407 13.1981 15.6807 13.5821 15.8284 14ZM12 12.1716L12.0002 4H2V12.1716C2.3182 12.0591 2.65606 12 3 12C3.79565 12 4.55871 12.3161 5.12132 12.8787C5.44073 13.1981 5.68067 13.5821 5.82843 14H10.1716C10.3193 13.5821 10.5593 13.1981 10.8787 12.8787C11.1981 12.5593 11.5821 12.3193 12 12.1716ZM2.29289 14.2929C2.48043 14.1054 2.73478 14 3 14C3.26522 14 3.51957 14.1054 3.70711 14.2929C3.89464 14.4804 4 14.7348 4 15C4 15.2652 3.89464 15.5196 3.70711 15.7071C3.51957 15.8946 3.26522 16 3 16C2.73478 16 2.48043 15.8946 2.29289 15.7071C2.10536 15.5196 2 15.2652 2 15C2 14.7348 2.10536 14.4804 2.29289 14.2929ZM12.2929 14.2929C12.4804 14.1054 12.7348 14 13 14C13.2652 14 13.5196 14.1054 13.7071 14.2929C13.8946 14.4804 14 14.7348 14 15C14 15.2652 13.8946 15.5196 13.7071 15.7071C13.5196 15.8946 13.2652 16 13 16C12.7348 16 12.4804 15.8946 12.2929 15.7071C12.1054 15.5196 12 15.2652 12 15C12 14.7348 12.1054 14.4804 12.2929 14.2929Z" fill="#616161"/>
</svg>
