<svg width="16" height="20" viewBox="0 0 16 20" fill="none" xmlns="http://www.w3.org/2000/svg">
<path fill-rule="evenodd" clip-rule="evenodd" d="M6.57051 5.20679L8.00001 4.78134L9.42951 5.20679C11.1686 5.72436 12 7.52032 12 9L12 14L4 14L4.00001 9C4.00001 7.52032 4.83142 5.72436 6.57051 5.20679ZM0 14V16L16 16V14L14 14L14 9C14 7 12.8915 4.15043 10 3.28988V2C10 2 10 0 8.00001 0C6.00001 0 6.00001 2 6.00001 2V3.28988C3.10852 4.15043 2.00001 7 2.00001 9L2 14H0ZM5 18C5 18.511 5.29133 18.9788 5.76872 19.3333C6.319 19.742 7.11649 20 8 20C8.88351 20 9.681 19.742 10.2313 19.3333C10.7087 18.9788 11 18.511 11 18H5Z" fill="#616161"/>
</svg>
