<svg width="20" height="20" viewBox="0 0 20 20" fill="none" xmlns="http://www.w3.org/2000/svg">
<path fill-rule="evenodd" clip-rule="evenodd" d="M11.8199 20H8.17988C7.95182 20 7.73059 19.9221 7.55289 19.7792C7.37519 19.6362 7.25169 19.4368 7.20288 19.214L6.79588 17.33C6.25294 17.0921 5.73812 16.7946 5.26088 16.443L3.42388 17.028C3.20645 17.0973 2.97183 17.0902 2.759 17.0078C2.54617 16.9254 2.36794 16.7727 2.25388 16.575L0.429884 13.424C0.31703 13.2261 0.274667 12.9958 0.309727 12.7708C0.344787 12.5457 0.455193 12.3392 0.622884 12.185L2.04788 10.885C1.98308 10.2961 1.98308 9.70189 2.04788 9.113L0.622884 7.816C0.454956 7.66177 0.344399 7.45507 0.309333 7.22978C0.274268 7.00449 0.316774 6.77397 0.429884 6.576L2.24988 3.423C2.36394 3.22532 2.54218 3.07259 2.755 2.99019C2.96783 2.90778 3.20245 2.90066 3.41988 2.97L5.25688 3.555C5.50088 3.375 5.75488 3.207 6.01688 3.055C6.26988 2.913 6.52988 2.784 6.79588 2.669L7.20388 0.787C7.25246 0.564198 7.37572 0.364688 7.55323 0.221549C7.73074 0.0784098 7.95185 0.000239966 8.17988 0H11.8199C12.0479 0.000239966 12.269 0.0784098 12.4465 0.221549C12.6241 0.364688 12.7473 0.564198 12.7959 0.787L13.2079 2.67C13.4879 2.794 13.7619 2.933 14.0269 3.088C14.2739 3.231 14.5129 3.388 14.7429 3.557L16.5809 2.972C16.7982 2.90292 17.0326 2.91017 17.2452 2.99256C17.4578 3.07495 17.6359 3.22753 17.7499 3.425L19.5699 6.578C19.8019 6.985 19.7219 7.5 19.3769 7.817L17.9519 9.117C18.0167 9.70589 18.0167 10.3001 17.9519 10.889L19.3769 12.189C19.7219 12.507 19.8019 13.021 19.5699 13.428L17.7499 16.581C17.6358 16.7787 17.4576 16.9314 17.2448 17.0138C17.0319 17.0962 16.7973 17.1033 16.5799 17.034L14.7429 16.449C14.266 16.8003 13.7515 17.0975 13.2089 17.335L12.7959 19.214C12.7471 19.4366 12.6238 19.6359 12.4463 19.7788C12.2688 19.9218 12.0478 19.9998 11.8199 20ZM11.015 18H8.98676L8.75079 16.9077L8.53492 15.9084L7.59855 15.4981C7.19131 15.3197 6.80516 15.0966 6.4472 14.8328L5.62597 14.2278L4.65401 14.5373L3.58273 14.8785L2.56506 13.1204L3.39581 12.3625L4.14712 11.6771L4.03588 10.6662C3.98708 10.2228 3.98708 9.77525 4.03588 9.33177L4.14728 8.31944L3.39411 7.63392L2.56441 6.87875L3.57969 5.11986L4.65001 5.4607L5.6227 5.77046L6.44418 5.16445C6.62935 5.02785 6.81808 4.90304 7.00829 4.79206C7.19817 4.68604 7.39219 4.5901 7.58955 4.50478L8.53276 4.097L8.75048 3.09274L8.98738 2H11.014L11.2541 3.09749L11.4708 4.08809L12.398 4.4987C12.6139 4.59431 12.8208 4.69955 13.0171 4.81437L13.0171 4.81439L13.0248 4.81885C13.2067 4.92416 13.385 5.04112 13.5586 5.1687L14.3792 5.77162L15.3495 5.4628L16.4202 5.12201L17.4355 6.88091L16.604 7.63947L15.8526 8.32488L15.9639 9.33576C16.0127 9.77925 16.0127 10.2268 15.9639 10.6702L15.8526 11.6811L16.604 12.3665L17.4355 13.1251L16.4201 14.8841L15.3498 14.5433L14.3778 14.2338L13.5565 14.8388C13.1992 15.1021 12.8136 15.3248 12.407 15.5028L11.4741 15.9111L11.2555 16.9057L11.015 18ZM11.9999 10C11.9999 11.1046 11.1044 12 9.99988 12C8.89531 12 7.99988 11.1046 7.99988 10C7.99988 8.89543 8.89531 8 9.99988 8C11.1044 8 11.9999 8.89543 11.9999 10ZM13.9999 10C13.9999 12.2091 12.209 14 9.99988 14C7.79074 14 5.99988 12.2091 5.99988 10C5.99988 7.79086 7.79074 6 9.99988 6C12.209 6 13.9999 7.79086 13.9999 10Z" fill="#616161"/>
</svg>
