<svg width="20" height="20" viewBox="0 0 20 20" fill="none" xmlns="http://www.w3.org/2000/svg">
<path fill-rule="evenodd" clip-rule="evenodd" d="M2 10C2 14.4183 5.58172 18 10 18C14.4183 18 18 14.4183 18 10C18 5.58172 14.4183 2 10 2C5.58172 2 2 5.58172 2 10ZM10 0C4.47715 0 0 4.47715 0 10C0 15.5228 4.47715 20 10 20C15.5228 20 20 15.5228 20 10C20 4.47715 15.5228 0 10 0ZM8.00011 8H6.00011L6.00006 7.95032C5.99934 7.46632 5.99789 6.47671 6.51761 5.6105C7.12262 4.60216 8.25658 4 10.0001 4C11.7436 4 12.8776 4.60214 13.4826 5.61047C14.0023 6.47667 14.0009 7.46627 14.0002 7.95027L14.0001 7.99995C14.0001 8.93214 13.7627 9.67798 13.381 10.293C13.0116 10.8881 12.5333 11.3157 12.1403 11.6432C12.0409 11.726 11.9503 11.8002 11.8671 11.8683L11.867 11.8684C11.5858 12.0986 11.3896 12.2592 11.2281 12.4477C11.0634 12.6398 11.0001 12.7922 11.0001 13H9.00011C9.00011 12.2078 9.31177 11.6102 9.7096 11.1461C9.99868 10.8088 10.3744 10.503 10.6738 10.2593L10.6738 10.2593L10.674 10.2592L10.6742 10.259C10.7404 10.2051 10.8029 10.1543 10.8599 10.1068C11.217 9.80923 11.4886 9.54938 11.6817 9.23823C11.8625 8.94696 12.0001 8.56778 12.0001 7.99998C12.0001 7.33332 11.6001 6 10.0001 6C8.4001 6 8.0001 7.33333 8.00011 8ZM11.0001 14H9.00012V16H11.0001V14Z" fill="#616161"/>
</svg>
